<?xml version="1.0" encoding="UTF-8"?>
<!DOCTYPE svg PUBLIC "-//W3C//DTD SVG 1.1//EN" "http://www.w3.org/Graphics/SVG/1.1/DTD/svg11.dtd">
<!-- Creator: CorelDRAW 2018 -->
<svg xmlns="http://www.w3.org/2000/svg" xml:space="preserve" width="42.3332mm" height="25.3998mm" version="1.1" style="shape-rendering:geometricPrecision; text-rendering:geometricPrecision; image-rendering:optimizeQuality; fill-rule:evenodd; clip-rule:evenodd"
viewBox="0 0 4233.32 2539.98"
 xmlns:xlink="http://www.w3.org/1999/xlink">
 <defs>
  <style type="text/css">
   <![CDATA[
    .fil5 {fill:none}
    .fil4 {fill:#1168AE;fill-rule:nonzero}
    .fil0 {fill:#605E5D;fill-rule:nonzero}
    .fil1 {fill:#6CB025;fill-rule:nonzero}
    .fil3 {fill:#E02D56;fill-rule:nonzero}
    .fil2 {fill:#FDD606;fill-rule:nonzero}
   ]]>
  </style>
 </defs>
 <g id="Capa_x0020_1">
  <metadata id="CorelCorpID_0Corel-Layer"/>
  <g id="_624050384">
   <g>
    <g>
     <path class="fil0" d="M2360.32 1039.47c0,7.5 -3.76,11.25 -11.25,11.25l-15.84 0c-7.49,0 -11.24,-3.75 -11.24,-11.25l0 -319.56c0,-7.84 3.75,-11.77 11.24,-11.77l15.84 0c7.49,0 11.25,3.93 11.25,11.77l0 319.56z"/>
     <path class="fil0" d="M2411.91 844.66c0,-12.95 1.96,-22.58 5.88,-28.89 3.91,-6.3 10.13,-11.33 18.65,-15.08 8.85,-3.75 18.47,-6.47 28.86,-8.18 10.39,-1.71 21.03,-2.56 31.94,-2.56 17.03,0 31.42,1.97 43.18,5.88 11.75,3.93 21.2,9.81 28.35,17.64 7.15,7.85 12.35,17.98 15.59,30.43 3.23,12.44 4.85,27.01 4.85,43.71l0 151.86c0,7.5 -3.75,11.25 -11.24,11.25l-15.84 0c-7.5,0 -11.24,-3.75 -11.24,-11.25l0 -151.86c0,-21.81 -3.83,-37.58 -11.5,-47.29 -7.66,-9.72 -21.54,-14.58 -41.64,-14.58 -7.15,0 -13.79,0.44 -19.93,1.28 -6.13,0.86 -11.58,2.13 -16.35,3.84 -4.43,1.71 -7.4,4.01 -8.94,6.9 -1.53,2.9 -2.3,8.1 -2.3,15.6l0 186.11c0,7.5 -3.75,11.25 -11.24,11.25l-15.84 0c-7.5,0 -11.24,-3.75 -11.24,-11.25l0 -194.81z"/>
     <path class="fil0" d="M2663.8 991.92c0.68,8.18 5.11,14.91 13.29,20.2 8.17,5.28 19.58,7.92 34.23,7.92 31.68,0 47.52,-11.59 47.52,-34.77 0,-9.88 -3.24,-17.89 -9.71,-24.03 -6.47,-6.14 -14.65,-11.33 -24.53,-15.6 -9.88,-4.25 -20.52,-8.43 -31.93,-12.52 -11.42,-4.09 -22.06,-9.12 -31.94,-15.08 -9.88,-5.97 -18.05,-13.47 -24.52,-22.5 -6.47,-9.03 -9.71,-21.05 -9.71,-36.05 0,-9.88 1.96,-19.08 5.88,-27.61 3.91,-8.52 9.45,-15.85 16.6,-21.99 7.16,-6.13 15.76,-10.99 25.81,-14.57 10.04,-3.58 21.2,-5.37 33.46,-5.37 27.25,0 48.46,6.39 63.62,19.18 15.15,12.78 22.73,29.23 22.73,49.34 0,7.5 -3.74,11.25 -11.23,11.25l-15.84 0c-7.16,0 -10.91,-3.75 -11.25,-11.25 -0.68,-9.54 -5.02,-17.39 -13.02,-23.52 -8.01,-6.14 -19.68,-9.21 -35.01,-9.21 -13.96,0 -24.77,2.81 -32.44,8.44 -7.66,5.63 -11.5,13.89 -11.5,24.8 0,9.89 3.24,17.73 9.71,23.52 6.47,5.8 14.64,10.91 24.53,15.34 9.87,4.43 20.52,8.61 31.93,12.53 11.41,3.92 22.05,8.86 31.94,14.82 9.87,5.97 18.05,13.64 24.52,23.01 6.47,9.38 9.71,21.4 9.71,36.05 0,9.89 -1.96,19.17 -5.87,27.87 -3.93,8.69 -9.54,16.28 -16.87,22.75 -7.33,6.48 -16.18,11.59 -26.57,15.34 -10.39,3.74 -22.06,5.62 -35,5.62 -13.28,0 -25.21,-1.71 -35.76,-5.11 -10.56,-3.4 -19.67,-8.01 -27.34,-13.81 -7.66,-5.79 -13.54,-12.52 -17.63,-20.19 -4.09,-7.68 -6.13,-15.93 -6.13,-24.8 0,-7.5 3.75,-11.25 11.24,-11.25l15.84 0c7.16,0 10.9,3.75 11.24,11.25z"/>
     <path class="fil0" d="M2819.13 828.3c-7.85,0 -11.76,-3.75 -11.76,-11.25l0 -10.73c0,-7.5 3.91,-11.26 11.76,-11.26l23.5 0 0 -39.37c0,-7.83 3.75,-11.76 11.24,-11.76l15.84 0c7.49,0 11.24,3.93 11.24,11.76l0 39.37 43.43 0c7.83,0 11.75,3.76 11.75,11.26l0 10.73c0,7.5 -3.92,11.25 -11.75,11.25l-43.43 0 0 165.15c0,9.55 1.7,16.36 5.11,20.45 3.4,4.1 9.02,6.14 16.86,6.14l23.51 0c6.81,0 10.21,3.92 10.21,11.76l0 3.07c0,6.82 -2.9,12.01 -8.68,15.59 -5.8,3.58 -16.7,5.37 -32.7,5.37 -16.7,0 -29.64,-5.19 -38.84,-15.6 -9.19,-10.39 -13.79,-27.17 -13.79,-50.36l0 -161.57 -23.5 0z"/>
     <path class="fil0" d="M2984.67 753.65c-15.67,0 -23.51,-7.67 -23.51,-23.01 0,-14.99 7.84,-22.5 23.51,-22.5 15.33,0 22.99,7.51 22.99,22.5 0,15.34 -7.66,23.01 -22.99,23.01zm-19.42 53.18l0 0c0,-7.84 3.75,-11.77 11.25,-11.77l15.83 0c7.49,0 11.25,3.93 11.25,11.77l0 232.64c0,7.5 -3.76,11.25 -11.25,11.25l-15.83 0c-7.5,0 -11.25,-3.75 -11.25,-11.25l0 -232.64z"/>
     <path class="fil0" d="M3043.42 828.3c-7.84,0 -11.75,-3.75 -11.75,-11.25l0 -10.73c0,-7.5 3.91,-11.26 11.75,-11.26l23.51 0 0 -39.37c0,-7.83 3.74,-11.76 11.24,-11.76l15.84 0c7.48,0 11.24,3.93 11.24,11.76l0 39.37 43.43 0c7.83,0 11.75,3.76 11.75,11.26l0 10.73c0,7.5 -3.92,11.25 -11.75,11.25l-43.43 0 0 165.15c0,9.55 1.7,16.36 5.11,20.45 3.4,4.1 9.02,6.14 16.86,6.14l23.5 0c6.81,0 10.22,3.92 10.22,11.76l0 3.07c0,6.82 -2.9,12.01 -8.69,15.59 -5.79,3.58 -16.69,5.37 -32.7,5.37 -16.69,0 -29.63,-5.19 -38.83,-15.6 -9.19,-10.39 -13.79,-27.17 -13.79,-50.36l0 -161.57 -23.51 0z"/>
     <path class="fil0" d="M3272.84 1055.83c-27.6,0 -48.8,-8.09 -63.62,-24.29 -14.81,-16.18 -22.22,-42.69 -22.22,-79.51l0 -145.2c0,-7.84 3.74,-11.77 11.24,-11.77l15.84 0c7.49,0 11.23,3.93 11.23,11.77l0 159.52c0,18.41 4.17,31.96 12.53,40.65 8.34,8.69 20.18,13.04 35.51,13.04 15.33,0 27.16,-4.26 35.51,-12.78 8.34,-8.52 12.52,-21.99 12.52,-40.4l0 -160.03c0,-7.84 3.91,-11.77 11.75,-11.77l15.33 0c7.83,0 11.75,3.93 11.75,11.77l0 145.2c0,36.82 -7.5,63.33 -22.48,79.51 -14.99,16.2 -36.62,24.29 -64.89,24.29z"/>
     <path class="fil0" d="M3397 828.3c-7.84,0 -11.75,-3.75 -11.75,-11.25l0 -10.73c0,-7.5 3.91,-11.26 11.75,-11.26l23.5 0 0 -39.37c0,-7.83 3.75,-11.76 11.24,-11.76l15.84 0c7.49,0 11.24,3.93 11.24,11.76l0 39.37 43.43 0c7.84,0 11.76,3.76 11.76,11.26l0 10.73c0,7.5 -3.92,11.25 -11.76,11.25l-43.43 0 0 165.15c0,9.55 1.7,16.36 5.11,20.45 3.41,4.1 9.02,6.14 16.87,6.14l23.5 0c6.81,0 10.22,3.92 10.22,11.76l0 3.07c0,6.82 -2.9,12.01 -8.69,15.59 -5.79,3.58 -16.69,5.37 -32.7,5.37 -16.69,0 -29.63,-5.19 -38.83,-15.6 -9.2,-10.39 -13.8,-27.17 -13.8,-50.36l0 -161.57 -23.5 0z"/>
     <path class="fil0" d="M3626.92 789.95c29.29,0 51.87,8.78 67.7,26.33 15.84,17.56 23.76,44.75 23.76,81.56l0 50.62c0,36.81 -8.09,63.91 -24.27,81.29 -16.18,17.39 -39.26,26.08 -69.23,26.08 -29.3,0 -51.95,-8.69 -67.96,-26.08 -16.01,-17.38 -24.01,-44.48 -24.01,-81.29l0 -51.13c0,-36.47 8.17,-63.49 24.52,-81.05 16.35,-17.55 39.51,-26.33 69.49,-26.33zm-1.53 230.09l0 0c19.75,0 33.72,-5.45 41.9,-16.36 8.17,-10.91 12.26,-27.61 12.26,-50.11l0 -61.36c0,-22.15 -4.01,-38.77 -12.01,-49.85 -8.01,-11.07 -21.71,-16.62 -41.13,-16.62 -20.44,0 -34.66,5.55 -42.66,16.62 -8.01,11.08 -12.01,27.7 -12.01,49.85l0 61.36c0,22.5 4.09,39.2 12.26,50.11 8.18,10.91 21.97,16.36 41.39,16.36z"/>
    </g>
    <g>
     <path class="fil0" d="M2529.95 1388.18c0,15.34 -2.55,28.81 -7.67,40.39 -5.1,11.59 -12.26,21.22 -21.45,28.89 -9.2,7.67 -20.11,13.47 -32.7,17.38 -12.61,3.92 -26.24,5.88 -40.88,5.88 -36.11,0 -63.53,-10.22 -82.27,-30.67 -18.73,-20.45 -28.09,-53.01 -28.09,-97.66l0 -95.62c0,-44.99 9.36,-77.72 28.09,-98.17 18.74,-20.45 46.16,-30.67 82.27,-30.67 14.64,0 28.27,1.96 40.88,5.87 12.59,3.93 23.5,9.72 32.7,17.39 9.19,7.67 16.35,17.21 21.45,28.63 5.12,11.43 7.67,24.8 7.67,40.14 0,9.54 -4.6,14.31 -13.8,14.31l-14.3 0c-7.84,0 -11.75,-3.91 -11.75,-11.76 0,-20.1 -5.8,-34.93 -17.38,-44.48 -11.58,-9.54 -26.74,-14.31 -45.47,-14.31 -23.5,0 -41.05,6.64 -52.63,19.94 -11.58,13.29 -17.37,33.74 -17.37,61.35l0 118.62c0,27.96 5.79,48.5 17.37,61.62 11.58,13.12 29.13,19.68 52.63,19.68 19.75,0 35.25,-4.77 46.5,-14.31 11.24,-9.54 16.86,-24.55 16.86,-45 0,-7.49 3.91,-11.25 11.75,-11.25l13.79 0c9.2,0 13.8,4.61 13.8,13.81z"/>
     <path class="fil0" d="M2587.68 1178.54c-15.67,0 -23.5,-7.67 -23.5,-23.01 0,-14.99 7.83,-22.49 23.5,-22.49 15.33,0 23,7.5 23,22.49 0,15.34 -7.67,23.01 -23,23.01zm-19.41 53.18l0 0c0,-7.84 3.74,-11.76 11.24,-11.76l15.84 0c7.49,0 11.24,3.92 11.24,11.76l0 232.64c0,7.5 -3.75,11.25 -11.24,11.25l-15.84 0c-7.5,0 -11.24,-3.75 -11.24,-11.25l0 -232.64z"/>
     <path class="fil0" d="M2741.47 1480.72c-27.59,0 -48.79,-8.09 -63.61,-24.28 -14.82,-16.19 -22.23,-42.7 -22.23,-79.51l0 -145.21c0,-7.84 3.75,-11.76 11.25,-11.76l15.83 0c7.49,0 11.24,3.92 11.24,11.76l0 159.53c0,18.4 4.17,31.95 12.52,40.64 8.34,8.69 20.18,13.04 35.51,13.04 15.33,0 27.16,-4.26 35.51,-12.78 8.35,-8.52 12.52,-21.99 12.52,-40.39l0 -160.04c0,-7.84 3.92,-11.76 11.75,-11.76l15.33 0c7.83,0 11.75,3.92 11.75,11.76l0 145.21c0,36.81 -7.49,63.32 -22.48,79.51 -14.99,16.19 -36.62,24.28 -64.89,24.28z"/>
     <path class="fil0" d="M3048.55 1426.53c0,12.96 -1.87,22.75 -5.61,29.4 -3.76,6.64 -9.89,11.67 -18.4,15.08 -8.86,3.75 -18.83,6.31 -29.89,7.67 -11.07,1.36 -22.06,2.04 -32.96,2.04 -29.98,0 -53.14,-8.77 -69.48,-26.33 -16.36,-17.55 -24.53,-44.56 -24.53,-81.04l0 -50.62c0,-36.81 8.17,-63.99 24.53,-81.55 16.34,-17.55 39.5,-26.33 69.48,-26.33 8.86,0 17.46,0.68 25.81,2.04 8.34,1.37 15.92,3.58 22.74,6.65l0 -78.74c0,-7.84 3.74,-11.76 11.23,-11.76l15.85 0c7.48,0 11.23,3.92 11.23,11.76l0 281.73zm-38.31 -148.79l0 0c0,-7.5 -0.86,-12.61 -2.56,-15.34 -1.71,-2.73 -4.6,-4.94 -8.69,-6.65 -5.45,-2.05 -11.24,-3.41 -17.37,-4.09 -6.13,-0.68 -12.95,-1.02 -20.44,-1.02 -20.1,0 -34.23,5.45 -42.41,16.36 -8.17,10.91 -12.26,27.27 -12.26,49.09l0 71.06c0,38.53 18.22,57.78 54.67,57.78 6.81,0 13.62,-0.51 20.44,-1.53 6.81,-1.02 12.6,-2.38 17.37,-4.09 4.43,-1.7 7.41,-3.91 8.94,-6.65 1.54,-2.72 2.31,-7.84 2.31,-15.34l0 -139.58z"/>
     <path class="fil0" d="M3138.48 1284.38c-1.71,7.16 -5.97,10.74 -12.78,10.74l-13.79 0c-7.84,0 -11.76,-3.91 -11.76,-11.76 0,-9.54 2.05,-18.49 6.13,-26.84 4.09,-8.35 9.88,-15.6 17.38,-21.73 7.49,-6.14 16.51,-11 27.08,-14.58 10.55,-3.58 22.3,-5.36 35.26,-5.36 16.35,0 30.05,2.47 41.12,7.41 11.07,4.95 19.84,11.85 26.32,20.71 6.47,8.87 11.06,19.6 13.79,32.21 2.73,12.62 4.09,26.77 4.09,42.44l0 108.91c0,12.96 -1.96,22.49 -5.87,28.63 -3.92,6.13 -10.31,11.08 -19.16,14.83 -18.06,7.16 -38.33,10.73 -60.81,10.73 -29.97,0 -52.97,-6.9 -68.98,-20.7 -16.01,-13.81 -24.01,-33.66 -24.01,-59.57 0,-13.63 2.38,-25.39 7.15,-35.28 4.77,-9.88 11.32,-17.98 19.67,-24.29 8.35,-6.3 18.22,-10.99 29.64,-14.06 11.41,-3.07 23.92,-4.6 37.55,-4.6 7.84,0 15.76,0.6 23.76,1.79 8,1.2 15.59,2.64 22.74,4.35l0 -26.08c0,-34.43 -15.67,-51.64 -47,-51.64 -13.98,0 -25.04,2.9 -33.22,8.69 -8.17,5.8 -12.95,14.15 -14.3,25.05zm46.49 68.52l0 0c-15.67,0 -28.53,3.32 -38.58,9.97 -10.05,6.65 -15.07,18.49 -15.07,35.53 0,17.39 4.68,29.49 14.05,36.31 9.37,6.82 22.91,10.22 40.63,10.22 5.78,0 11.91,-0.33 18.39,-1.02 6.46,-0.68 12.26,-2.05 17.37,-4.09 4.09,-1.7 6.98,-3.91 8.68,-6.65 1.71,-2.72 2.56,-7.83 2.56,-15.34l0 -58.8c-7.15,-1.7 -14.74,-3.14 -22.74,-4.34 -8,-1.19 -16.44,-1.79 -25.29,-1.79z"/>
     <path class="fil0" d="M3488.47 1426.53c0,12.96 -1.87,22.75 -5.62,29.4 -3.75,6.64 -9.88,11.67 -18.4,15.08 -8.86,3.75 -18.82,6.31 -29.88,7.67 -11.08,1.36 -22.06,2.04 -32.96,2.04 -29.98,0 -53.14,-8.77 -69.49,-26.33 -16.35,-17.55 -24.53,-44.56 -24.53,-81.04l0 -50.62c0,-36.81 8.18,-63.99 24.53,-81.55 16.35,-17.55 39.51,-26.33 69.49,-26.33 8.86,0 17.45,0.68 25.8,2.04 8.35,1.37 15.92,3.58 22.74,6.65l0 -78.74c0,-7.84 3.75,-11.76 11.24,-11.76l15.84 0c7.49,0 11.24,3.92 11.24,11.76l0 281.73zm-38.32 -148.79l0 0c0,-7.5 -0.85,-12.61 -2.56,-15.34 -1.7,-2.73 -4.59,-4.94 -8.68,-6.65 -5.45,-2.05 -11.24,-3.41 -17.37,-4.09 -6.13,-0.68 -12.95,-1.02 -20.44,-1.02 -20.11,0 -34.24,5.45 -42.41,16.36 -8.18,10.91 -12.26,27.27 -12.26,49.09l0 71.06c0,38.53 18.21,57.78 54.67,57.78 6.81,0 13.62,-0.51 20.44,-1.53 6.81,-1.02 12.6,-2.38 17.37,-4.09 4.42,-1.7 7.41,-3.91 8.94,-6.65 1.53,-2.72 2.3,-7.84 2.3,-15.34l0 -139.58z"/>
     <path class="fil0" d="M3622.84 1475.61c-29.98,0 -52.97,-8.77 -68.97,-26.33 -16.02,-17.55 -24.02,-43.72 -24.02,-78.49l0 -39.37c0,-77.72 30.99,-116.57 92.99,-116.57 27.93,0 49.9,8.35 65.92,25.05 16,16.7 24.01,41.59 24.01,74.65l0 14.83c0,13.98 -2.3,22.93 -6.9,26.84 -4.6,3.92 -13.71,5.88 -27.33,5.88l-109.86 0 0 18.92c0,19.43 4.51,34.09 13.55,43.97 9.01,9.89 23.75,14.83 44.19,14.83l65.92 0c7.15,0 10.73,3.75 10.73,11.25l0 3.06c0,7.85 -3.84,13.39 -11.5,16.62 -7.67,3.25 -21.72,4.86 -42.16,4.86l-26.57 0zm40.88 -144.19l0 0c4.42,0 7.23,-0.68 8.43,-2.04 1.19,-1.36 1.79,-4.6 1.79,-9.72l0 -10.73c0,-38.86 -17.04,-58.29 -51.1,-58.29 -36.11,0 -54.16,19.43 -54.16,58.29l0 22.49 95.04 0z"/>
     <path class="fil0" d="M3776.64 1416.81c0.68,8.18 5.11,14.92 13.29,20.2 8.17,5.29 19.58,7.92 34.23,7.92 31.68,0 47.52,-11.58 47.52,-34.77 0,-9.88 -3.25,-17.89 -9.71,-24.03 -6.48,-6.14 -14.65,-11.32 -24.53,-15.59 -9.88,-4.26 -20.52,-8.44 -31.93,-12.53 -11.42,-4.09 -22.06,-9.11 -31.94,-15.08 -9.88,-5.96 -18.05,-13.47 -24.52,-22.5 -6.48,-9.03 -9.71,-21.05 -9.71,-36.05 0,-9.88 1.96,-19.08 5.88,-27.61 3.91,-8.51 9.45,-15.85 16.6,-21.98 7.16,-6.14 15.75,-11 25.8,-14.58 10.05,-3.58 21.21,-5.36 33.47,-5.36 27.25,0 48.46,6.39 63.62,19.17 15.15,12.78 22.73,29.23 22.73,49.34 0,7.5 -3.75,11.25 -11.24,11.25l-15.84 0c-7.15,0 -10.9,-3.75 -11.24,-11.25 -0.69,-9.54 -5.03,-17.39 -13.03,-23.52 -8.01,-6.14 -19.67,-9.2 -35,-9.2 -13.97,0 -24.78,2.81 -32.44,8.44 -7.67,5.62 -11.5,13.88 -11.5,24.79 0,9.89 3.23,17.73 9.71,23.52 6.47,5.8 14.64,10.92 24.52,15.34 9.88,4.43 20.52,8.61 31.94,12.53 11.41,3.92 22.05,8.87 31.93,14.82 9.88,5.98 18.06,13.64 24.53,23.02 6.47,9.38 9.71,21.39 9.71,36.04 0,9.89 -1.97,19.17 -5.88,27.87 -3.92,8.69 -9.54,16.28 -16.86,22.75 -7.33,6.48 -16.18,11.59 -26.57,15.34 -10.39,3.75 -22.06,5.62 -35,5.62 -13.28,0 -25.21,-1.71 -35.76,-5.11 -10.57,-3.4 -19.68,-8.01 -27.34,-13.8 -7.67,-5.79 -13.54,-12.53 -17.63,-20.2 -4.09,-7.67 -6.13,-15.93 -6.13,-24.8 0,-7.49 3.74,-11.25 11.24,-11.25l15.84 0c7.15,0 10.9,3.76 11.24,11.25z"/>
    </g>
    <g>
     <path class="fil0" d="M2492.65 1851.49c0,12.96 -1.88,22.75 -5.62,29.4 -3.75,6.64 -9.88,11.67 -18.4,15.08 -8.86,3.75 -18.82,6.31 -29.89,7.67 -11.07,1.36 -22.05,2.04 -32.95,2.04 -29.98,0 -53.14,-8.77 -69.49,-26.33 -16.35,-17.55 -24.53,-44.56 -24.53,-81.04l0 -50.62c0,-36.81 8.18,-63.99 24.53,-81.55 16.35,-17.55 39.51,-26.33 69.49,-26.33 8.85,0 17.45,0.68 25.8,2.04 8.34,1.37 15.92,3.58 22.74,6.65l0 -78.74c0,-7.84 3.74,-11.76 11.24,-11.76l15.84 0c7.49,0 11.24,3.92 11.24,11.76l0 281.73zm-38.32 -148.79l0 0c0,-7.5 -0.85,-12.61 -2.56,-15.34 -1.7,-2.73 -4.59,-4.94 -8.68,-6.65 -5.45,-2.05 -11.24,-3.41 -17.38,-4.09 -6.13,-0.68 -12.94,-1.02 -20.43,-1.02 -20.11,0 -34.24,5.45 -42.41,16.36 -8.18,10.91 -12.26,27.27 -12.26,49.08l0 71.07c0,38.53 18.21,57.78 54.67,57.78 6.81,0 13.62,-0.51 20.43,-1.53 6.82,-1.02 12.61,-2.38 17.38,-4.09 4.42,-1.7 7.41,-3.91 8.94,-6.65 1.53,-2.72 2.3,-7.84 2.3,-15.34l0 -139.58z"/>
     <path class="fil0" d="M2627.02 1900.57c-29.98,0 -52.97,-8.77 -68.98,-26.33 -16.01,-17.55 -24.01,-43.72 -24.01,-78.49l0 -39.37c0,-77.72 30.99,-116.57 92.99,-116.57 27.93,0 49.9,8.35 65.92,25.05 16,16.7 24.01,41.59 24.01,74.65l0 14.83c0,13.98 -2.3,22.93 -6.9,26.84 -4.6,3.92 -13.71,5.88 -27.33,5.88l-109.86 0 0 18.92c0,19.43 4.51,34.09 13.54,43.97 9.02,9.89 23.76,14.83 44.2,14.83l65.91 0c7.16,0 10.73,3.75 10.73,11.25l0 3.06c0,7.85 -3.83,13.39 -11.49,16.62 -7.67,3.25 -21.72,4.86 -42.16,4.86l-26.57 0zm40.88 -144.19l0 0c4.42,0 7.23,-0.68 8.43,-2.04 1.19,-1.36 1.79,-4.6 1.79,-9.72l0 -10.73c0,-38.86 -17.04,-58.29 -51.1,-58.29 -36.11,0 -54.16,19.43 -54.16,58.29l0 22.49 95.04 0z"/>
     <path class="fil0" d="M2794.11 1889.32c0,7.5 -3.76,11.25 -11.25,11.25l-15.84 0c-7.49,0 -11.24,-3.75 -11.24,-11.25l0 -319.56c0,-7.84 3.75,-11.76 11.24,-11.76l15.84 0c7.49,0 11.25,3.92 11.25,11.76l0 319.56z"/>
     <path class="fil0" d="M3099.13 1558c7.83,0 11.75,3.75 11.75,11.25l0 13.29c0,7.5 -3.92,11.25 -11.75,11.25l-127.73 0 0 113 106.27 0c7.84,0 11.75,3.75 11.75,11.24l0 13.3c0,7.5 -3.91,11.25 -11.75,11.25l-106.27 0 0 146.74c0,7.5 -3.76,11.25 -11.25,11.25l-15.83 0c-7.5,0 -11.25,-3.75 -11.25,-11.25l0 -319.56c0,-7.84 4.09,-11.76 12.26,-11.76l153.8 0z"/>
     <path class="fil0" d="M3208.98 1905.68c-27.59,0 -48.8,-8.09 -63.61,-24.28 -14.82,-16.19 -22.23,-42.7 -22.23,-79.51l0 -145.21c0,-7.84 3.75,-11.76 11.24,-11.76l15.84 0c7.49,0 11.24,3.92 11.24,11.76l0 159.53c0,18.4 4.17,31.95 12.52,40.64 8.34,8.69 20.18,13.04 35.51,13.04 15.33,0 27.16,-4.26 35.51,-12.78 8.34,-8.52 12.52,-21.99 12.52,-40.39l0 -160.04c0,-7.84 3.91,-11.76 11.75,-11.76l15.33 0c7.83,0 11.75,3.92 11.75,11.76l0 145.21c0,36.81 -7.49,63.32 -22.48,79.51 -14.99,16.19 -36.62,24.28 -64.89,24.28z"/>
     <path class="fil0" d="M3333.14 1678.15c-7.84,0 -11.75,-3.74 -11.75,-11.24l0 -10.74c0,-7.5 3.91,-11.25 11.75,-11.25l23.51 0 0 -39.37c0,-7.84 3.74,-11.76 11.24,-11.76l15.84 0c7.48,0 11.24,3.92 11.24,11.76l0 39.37 43.43 0c7.83,0 11.75,3.75 11.75,11.25l0 10.74c0,7.5 -3.92,11.24 -11.75,11.24l-43.43 0 0 165.15c0,9.55 1.7,16.37 5.11,20.46 3.4,4.09 9.02,6.13 16.86,6.13l23.5 0c6.81,0 10.22,3.93 10.22,11.77l0 3.06c0,6.82 -2.9,12.02 -8.69,15.59 -5.79,3.58 -16.69,5.37 -32.7,5.37 -16.69,0 -29.63,-5.19 -38.83,-15.59 -9.2,-10.4 -13.79,-27.18 -13.79,-50.37l0 -161.57 -23.51 0z"/>
     <path class="fil0" d="M3562.55 1905.68c-27.59,0 -48.79,-8.09 -63.61,-24.28 -14.81,-16.19 -22.22,-42.7 -22.22,-79.51l0 -145.21c0,-7.84 3.74,-11.76 11.24,-11.76l15.84 0c7.49,0 11.23,3.92 11.23,11.76l0 159.53c0,18.4 4.17,31.95 12.53,40.64 8.34,8.69 20.18,13.04 35.51,13.04 15.33,0 27.16,-4.26 35.51,-12.78 8.34,-8.52 12.52,-21.99 12.52,-40.39l0 -160.04c0,-7.84 3.91,-11.76 11.75,-11.76l15.33 0c7.83,0 11.75,3.92 11.75,11.76l0 145.21c0,36.81 -7.5,63.32 -22.48,79.51 -15,16.19 -36.62,24.28 -64.9,24.28z"/>
     <path class="fil0" d="M3782.26 1677.13c-7.83,0 -14.39,0.43 -19.67,1.28 -5.28,0.85 -10.14,2.13 -14.56,3.83 -4.77,2.05 -7.75,4.95 -8.94,8.69 -1.19,3.76 -1.79,11.09 -1.79,21.99l0 176.4c0,7.5 -3.75,11.25 -11.24,11.25l-15.84 0c-7.49,0 -11.24,-3.75 -11.24,-11.25l0 -194.81c0,-11.92 2.47,-21.47 7.41,-28.63 4.94,-7.16 11.41,-12.69 19.42,-16.61 8,-3.92 16.94,-6.48 26.82,-7.68 9.88,-1.19 19.75,-1.78 29.63,-1.78 11.25,0 18.99,1.02 23.25,3.06 4.26,2.05 6.39,6.32 6.39,12.79l0 7.67c0,4.77 -1.02,8.26 -3.07,10.48 -2.04,2.22 -5.96,3.32 -11.75,3.32l-14.82 0z"/>
     <path class="fil0" d="M3918.69 1639.81c29.29,0 51.86,8.78 67.7,26.33 15.84,17.56 23.76,44.74 23.76,81.55l0 50.62c0,36.81 -8.1,63.91 -24.27,81.3 -16.18,17.38 -39.26,26.07 -69.23,26.07 -29.3,0 -51.96,-8.69 -67.96,-26.07 -16.02,-17.39 -24.02,-44.49 -24.02,-81.3l0 -51.13c0,-36.47 8.18,-63.48 24.53,-81.04 16.35,-17.55 39.51,-26.33 69.49,-26.33zm-1.53 230.08l0 0c19.75,0 33.72,-5.44 41.89,-16.36 8.18,-10.9 12.27,-27.61 12.27,-50.11l0 -61.35c0,-22.16 -4.01,-38.77 -12.01,-49.86 -8.01,-11.07 -21.72,-16.61 -41.13,-16.61 -20.44,0 -34.67,5.54 -42.67,16.61 -8.01,11.09 -12,27.7 -12,49.86l0 61.35c0,22.5 4.08,39.21 12.26,50.11 8.17,10.92 21.97,16.36 41.39,16.36z"/>
    </g>
   </g>
   <g>
    <path class="fil1" d="M1044.99 2122.4c0.72,0.24 10.9,3.66 13.73,4.33l0 -997.07 -52.83 29.71 0 29.73 39.1 -21.63 0 954.93z"/>
    <path class="fil1" d="M1035.92 1183.21l-30.03 16.83 0 677.9 0 233.49c12.6,3.69 18.03,5.68 30.46,9.14l-0.43 -937.36z"/>
    <path class="fil2" d="M867.65 1384.97l108.28 -50.97 0.01 -284.25c-7.18,-5.8 -12.5,-15.15 -12.5,-22.97 0,-9.39 7.64,-12.96 17.02,-7.99 9.42,4.99 17.01,16.63 17.01,26.03 0,7.81 -5.3,11.53 -12.48,9.73l0 288 -108.29 50.98 0 312.39 95.16 50.43 0 344.36 -9.03 -3.2 0.01 -336.89 -95.19 -50.45 0 -325.2z"/>
    <path class="fil2" d="M921.79 1548.08c-7.18,-5.81 -12.48,-15.14 -12.48,-22.97 0,-9.4 7.61,-12.99 17.01,-8 9.39,4.97 17.02,16.64 17.02,26.04 0,7.82 -5.31,11.53 -12.49,9.73l0 134.16 75.04 39.72 -1.14 8.44 -82.96 -43.92 0 -143.2z"/>
    <path class="fil2" d="M958.69 1475.81c-7.19,-5.79 -12.49,-15.12 -12.49,-22.95 0,-9.4 7.62,-12.99 17.01,-8.01 9.39,4.97 17.01,16.64 17.01,26.04 0,7.84 -5.3,11.53 -12.48,9.73l0 189.37 38.15 19.74 0 9.12 -47.2 -24.61 0 -198.43z"/>
    <path class="fil3" d="M1873.38 2154.8l-2 9.99c-0.92,6.78 -3.81,12.99 -6.25,19.36 -6.24,12.01 -14.07,23.41 -24.27,32.26 -19.67,18.6 -44.24,30.31 -68.95,39.56 -24.91,9.08 -50.68,15.39 -76.67,19.77 -104.24,17.2 -210.3,12.82 -314.61,2.1 -104.46,-11.37 -207.88,-31.04 -309.71,-56.71 -101.65,-26.45 -201.74,-58.64 -299.65,-96.59 -97.8,-38.09 -193.63,-81.94 -283.93,-135.89 -44.97,-27.11 -88.72,-56.74 -128.28,-91.67 -19.71,-17.45 -38.49,-36.21 -54.57,-57.3 -15.9,-21.05 -29.52,-44.82 -34.64,-71.41 -4.97,-26.57 2.62,-55.34 20.7,-75.32 17.84,-20.15 41.53,-33.39 65.78,-43.34 49.02,-19.56 103.81,-29.67 155.98,-32.55 -52.09,3.86 -106.69,15 -154.83,35.29 -23.81,10.28 -46.81,23.83 -63.54,43.5 -16.9,19.52 -23.33,46.34 -18.24,71.35 11.32,50.59 49.73,90.43 88.04,124.47 39.27,34.23 82.89,63.38 127.76,90.02 90.06,53.02 185.77,96.09 283.42,133.38 97.73,37.15 197.69,68.59 299.02,94.23 101.2,26.11 203.99,46.44 307.81,58.43 103.63,11.34 209.11,16.33 312.12,0 25.67,-4.17 51.06,-10.21 75.44,-18.92 24.18,-8.85 48.05,-20.14 66.73,-37.61 9.74,-8.32 17.01,-18.91 22.91,-29.98 2.25,-5.87 5.02,-11.58 5.88,-17.9l1.95 -9.27 0.27 -9.48c0.44,-25.44 -10.2,-50.08 -24.58,-71.37 -29.3,-42.89 -69.35,-79.76 -111.41,-110.49 -42.4,-30.68 -80.61,-54.68 -126.38,-80.15 46.25,24.6 84.99,47.74 128.1,77.71 42.8,30.06 83.72,66.17 114.65,109.58 15.02,21.66 26.43,47.44 26.2,74.77l-0.25 10.18zm-263.66 -282.75l-0.16 0.21c-0.6,-0.23 -1.11,-0.62 -1.77,-0.78 -6.38,-1.41 -12.68,2.53 -14.06,8.82 -1.26,5.64 2.01,11.07 7.3,13.16 0.09,0.08 0.08,0.25 0.19,0.31 84.47,46.29 257.8,170.19 237.96,248.14 -14.54,57.16 -105.33,87.61 -239.32,92.17 -294.17,-7.69 -428.58,-42.17 -580.65,-84.95 -0.4,-0.11 -0.76,-0.2 -1.15,-0.31 -0.55,-0.14 -1.09,-0.32 -1.65,-0.47 -21.43,-6.04 -43.21,-12.23 -65.88,-18.54 -184.75,-51.41 -394.96,-163.41 -403.92,-166.91 -156.58,-86.97 -246.55,-177.34 -227.67,-245.08 13.95,-50.09 85.23,-79.94 193.74,-89.41 6.3,-0.21 11.24,-5.44 11.04,-11.71 -0.2,-6.26 -5.47,-11.17 -11.77,-10.97 -157.65,9.34 -264.69,51.6 -285.22,125.3 -42.44,152.32 300.26,380.99 765.44,510.76 465.18,129.76 876.66,111.49 919.09,-40.82 26.27,-94.25 -95.08,-217.73 -301.54,-328.92z"/>
    <path class="fil1" d="M1389.92 377.47c-7.63,-4.57 -14.03,-3.21 -15.98,2.66l-210.65 -112.94 0 80.4 -35.21 -19.27 0 10.56 44.07 24.22 0 -8.73 0 -4.23 0 -68.8 201.79 107.65c1.95,8.19 8.33,17.2 15.98,21.77 9.19,5.5 16.63,2.51 16.63,-6.68 0,-9.21 -7.44,-21.11 -16.63,-26.61z"/>
    <polygon class="fil1" points="1128.08,504.87 1188.55,539.16 1188.55,589.29 1179.27,594.23 1179.27,543.21 1128.08,514.19 "/>
    <polygon class="fil1" points="1103.44,518.72 1128.07,504.87 1128.07,427.62 1103.44,441.17 "/>
    <polygon class="fil1" points="1092.86,229.97 1092.86,347.73 1128.07,328.04 1128.07,211.65 "/>
    <path class="fil1" d="M1197.58 457.4c0,-9.63 -7.81,-22.12 -17.43,-27.88 -8.03,-4.8 -14.7,-3.35 -16.75,2.79l-35.32 -15.13 0 10.43 34.75 15.88c2.05,8.6 9.29,16.12 17.32,20.93 9.62,5.75 17.43,2.62 17.43,-7.02z"/>
    <path class="fil1" d="M1225.16 380.51l0 189.18 9.33 -4.86 0 -179.11c7.39,2.08 12.85,-1.58 12.85,-9.62 0,-9.69 -7.84,-21.91 -17.51,-27.31 -9.69,-5.41 -17.53,-1.94 -17.53,7.74 0,8.05 5.46,17.8 12.86,23.98z"/>
    <path class="fil2" d="M761.01 2028.56l0 -338.27 -90.85 50.59 0 -310.38 103.35 -161 0 -271.33c-6.85,1.93 -11.93,-1.48 -11.93,-8.93 0,-8.98 7.29,-20.31 16.24,-25.29 8.99,-5.01 16.26,-1.79 16.26,7.19 0,7.48 -5.08,16.5 -11.93,22.22l0 274.91 -103.37 160.99 0 298.17 57.15 -31.83 0 -235.49c-6.84,1.9 -11.92,-1.49 -11.92,-8.95 0,-8.99 7.29,-20.3 16.23,-25.29 8.97,-4.99 16.26,-1.78 16.26,7.2 0,7.46 -5.09,16.51 -11.93,22.23l0 235.49 25.05 -13.95 0 134.26 25.93 -40.76 0 -234.42c-6.85,1.9 -11.92,-1.5 -11.92,-8.96 0,-8.98 7.28,-20.31 16.23,-25.3 8.97,-4.99 16.26,-1.76 16.26,7.21 0,7.46 -5.09,16.53 -11.94,22.25l0 241.15 -34.56 53.82 0 206.19 -8.61 -3.72zm-52.76 -1054.94c-7.83,4.35 -14.34,2.66 -16.34,-3.41l-140.04 77.68 0 -9.2 140.04 -77.54c2,-8.3 8.53,-17.24 16.34,-21.58 9.4,-5.22 17.01,-1.84 17.01,7.58 0,9.39 -7.61,21.24 -17.01,26.47zm-0.61 154.15l0 149.84 -103.37 161.02 0 405.9 90.85 -50.59 0 206.91 -8.64 -3.87 0 -189.59 -90.84 50.59 0 -343.68 -28.64 16.55 0 -208.15c-6.85,1.91 -11.91,-1.48 -11.91,-8.95 0,-8.98 7.27,-20.31 16.22,-25.31 8.98,-4.99 16.25,-1.76 16.25,7.22 0,7.48 -5.06,16.51 -11.92,22.22l0 199.52 20 -11.7 0 -65.85 103.37 -161 0 -137.63 -77.14 42.95c-1.9,7.92 -8.12,16.46 -15.58,20.61 -8.98,4.99 -16.25,1.78 -16.25,-7.19 0,-8.97 7.27,-20.31 16.25,-25.3 7.46,-4.16 13.67,-2.56 15.58,3.24l85.77 -47.76zm111.7 768.18c-1.9,7.95 -8.13,16.54 -15.59,20.75 -8.98,5.07 -16.23,1.9 -16.23,-7.07 0,-8.98 7.25,-20.35 16.23,-25.43 7.45,-4.22 13.69,-2.67 15.59,3.12l16.19 -8.9 0 -1025.61 -283.71 155.5 0 91.26 63.92 -35.1c2,-8.31 8.53,-17.24 16.34,-21.58 9.4,-5.23 17.01,-1.83 17.01,7.58 0,9.39 -7.61,21.24 -17.01,26.47 -7.82,4.35 -14.34,2.66 -16.34,-3.41l-63.92 35.25 0 822.4c53.37,31.19 169.87,81.31 169.87,81.31l0 -259.64 -90.85 50.59 0 -365.47 103.37 -161 0 -205.45 -49.01 27.3c-1.89,7.92 -8.13,16.46 -15.59,20.61 -8.96,4.99 -16.24,1.77 -16.24,-7.2 0,-8.97 7.28,-20.31 16.24,-25.3 7.46,-4.16 13.69,-2.56 15.59,3.25l57.64 -32.1 0 217.66 -103.36 161 0 353.25 90.85 -51.04 0 277.24c34.28,15.11 71.17,28.82 105.2,40.64l0 -169.54 -16.19 8.66z"/>
    <polygon class="fil2" points="921.65,1781.41 921.65,2084.67 930.69,2087.31 930.69,1777.13 835.52,1726.69 835.52,1735.77 "/>
    <path class="fil2" d="M943.82 1305.64l0 -228.07 -60.4 -32.01c-1.99,-8.24 -8.51,-16.99 -16.32,-21.13 -9.4,-4.98 -17.03,-1.4 -17.03,8 0,9.4 7.63,21.05 17.03,26.03 7.82,4.14 14.34,2.31 16.33,-3.83l51.33 27.21 0 215.24 -99.23 46.72 0 382.89 0 -370.09 108.29 -50.96z"/>
    <polygon class="fil2" points="835.53,1772.36 884.76,1798.45 884.76,2072.85 893.81,2075.68 893.81,1794.2 835.53,1763.31 "/>
    <polygon class="fil2" points="835.53,1072.67 835.53,1081.72 897.87,1114.76 897.87,1258.96 835.53,1288.32 835.53,1301.12 906.93,1267.5 906.93,1110.51 "/>
    <path class="fil4" d="M1164.57 1512.15l0 -130.88c6.93,-5.8 12.06,-14.95 12.06,-22.49 0,-9.09 -7.36,-12.33 -16.43,-7.29 -9.08,5.05 -16.41,16.5 -16.41,25.57 0,7.55 5.11,11 12.05,9.07l0 139.62 91.6 -50.97 0 -8.73 -82.87 46.1z"/>
    <path class="fil4" d="M1247.44 1441.14l0 -8.73 -40.21 22.16 0 -130.89c6.93,-5.79 12.06,-14.93 12.06,-22.48 0,-9.09 -7.37,-12.33 -16.43,-7.29 -9.08,5.05 -16.42,16.5 -16.42,25.57 0,7.55 5.11,11 12.05,9.07l0 139.62 48.95 -27.03z"/>
    <path class="fil4" d="M1247.39 603.29l-59.55 33.15c-2.07,-6.25 -8.77,-7.97 -16.81,-3.48 -9.68,5.4 -17.53,17.65 -17.53,27.32 0,9.68 7.85,13.14 17.53,7.73 8.04,-4.49 14.76,-13.7 16.81,-22.25l59.55 -33.17 0 -9.3z"/>
    <path class="fil4" d="M1087.35 1827.74l0 307.62c0.1,0.02 6.2,1.6 9.13,2.17l0 -314.29c7.27,-5.57 12.62,-14.8 12.62,-22.72 0,-9.48 -7.68,-13.38 -17.17,-8.71 -9.5,4.68 -17.17,16.15 -17.17,25.63 0,7.91 5.35,11.86 12.59,10.3z"/>
    <path class="fil4" d="M1138.04 2147.94c3.03,0.65 6.08,1.71 9.15,2.17l0 -467.84 -88.47 43.59 0 9.15 79.32 -39.08 0 452.01z"/>
    <path class="fil4" d="M1182.95 2157.87c2.83,0.72 5.65,1.09 8.48,1.73l0 -556.54 -74.59 40.03 0 -31.42 104.66 -58.83 0 612.69c2.82,0.45 5.65,1.09 8.48,1.52l0 -627.41 -113.14 63.55 0 -285.57 106.11 -165.27 0 -299.24c7.55,-6.33 13.14,-16.29 13.14,-24.52 0,-9.92 -8.03,-13.46 -17.92,-7.96 -9.88,5.5 -17.9,18 -17.9,27.9 0,8.24 5.58,11.98 13.15,9.88l0 295.28 -96.58 150.44 0 -45.81 62.74 -97.72 0 -360.55c7.56,-6.31 13.17,-16.31 13.17,-24.54 0,-9.91 -8.04,-13.47 -17.92,-7.97 -9.89,5.51 -17.92,18.02 -17.92,27.93 0,8.22 5.59,11.98 13.14,9.89l0 356.6 -53.21 82.88 0 -44.94 23.91 -37.24 0 -427.05c7.55,-6.32 13.13,-16.3 13.13,-24.53 0,-9.9 -8.01,-13.46 -17.9,-7.95 -9.88,5.5 -17.92,18.01 -17.92,27.88 0,8.25 5.59,12.01 13.16,9.91l0 423.11 -14.38 22.38 0 -128.26 -18.69 -9.62 0 -357.63 -39.43 22.46 0 8.75 30.71 -17.6 0 339.52 -30.71 -15.81 0 13.01 49 25.21 0 581.15 -28.12 13.86 0 -566.19 -20.65 -11.02 0 13.47 11.51 5.86 0 562.38 -11.74 5.79 0 9.15 58.12 -28.63 66.11 -33.9 0 539.51z"/>
    <polygon class="fil4" points="1300.18,1470.76 1247.44,1441.1 1247.44,1466.06 1300.18,1495.71 "/>
    <polygon class="fil4" points="1507.29,898.96 1567.57,933.18 1567.57,761.13 1507.29,729.27 "/>
    <polygon class="fil4" points="1272.74,617.35 1280.34,621.39 1280.34,679.58 1311.22,696.58 1311.22,616.18 1567.57,752.28 1567.57,728.31 1247.44,557.8 1247.44,603.3 "/>
    <path class="fil1" d="M1276.87 573.48l0 -103.09 52.86 29.51c2.05,8.55 8.77,17.77 16.82,22.26 9.66,5.39 17.52,1.94 17.52,-7.74 0,-9.67 -7.86,-21.92 -17.52,-27.32 -8.05,-4.49 -14.76,-2.77 -16.82,3.48l-62.17 -34.72 0 112.66 9.31 4.96z"/>
    <path class="fil1" d="M1314.85 593.71l0 -45.28 83.2 46.46c2.05,8.54 8.76,17.76 16.81,22.25 9.68,5.4 17.53,1.95 17.53,-7.73 0,-9.67 -7.85,-21.91 -17.53,-27.32 -8.05,-4.49 -14.74,-2.76 -16.81,3.48l-92.51 -51.65 0 54.83 9.31 4.96z"/>
    <path class="fil4" d="M1300.18 1200.4l0 -118.88 0 -162.86c-6.92,-5.87 -12.06,-15.08 -12.06,-22.64 0,-9.06 7.37,-12.23 16.42,-7.09 9.06,5.16 16.43,16.71 16.43,25.77 0,7.55 -5.13,10.93 -12.06,8.91l0 154.14 26.88 -11.61 0 -264.94c-6.94,-5.87 -12.05,-15.07 -12.05,-22.62 0,-9.08 7.34,-12.25 16.39,-7.1 9.09,5.17 16.45,16.7 16.45,25.78 0,7.54 -5.13,10.93 -12.07,8.9l0 256.22 60.19 -26.02 0 -295.58c-6.93,-5.84 -12.05,-15.04 -12.05,-22.59 0,-9.1 7.34,-12.27 16.42,-7.1 9.08,5.15 16.42,16.68 16.42,25.77 0,7.53 -5.11,10.93 -12.04,8.9l0 299.18 -104.54 45.15 0 115.28 0 295.25 91.87 52.25 0 643.62c8.94,1.15 17.91,2.25 26.87,3.27l0 -658.2 -91.86 -52.25 0 -369.61 104.53 -45.15 0 -218.24c-6.94,-5.87 -12.06,-15.09 -12.06,-22.64 0,-9.08 7.35,-12.24 16.41,-7.08 9.07,5.15 16.43,16.69 16.43,25.78 0,7.54 -5.12,10.92 -12.05,8.9l0 221.85 -104.53 45.18 0 357.25 91.87 52.24 0 662.93c10.38,1.13 20.74,2.15 31.01,3.06l0 -562.08 -0.05 -0.05 0 -118.64 -91.83 -52.22 0 -313.91 104.55 -45.16 0 -129.6c-6.95,-5.9 -12.07,-15.1 -12.07,-22.65 0,-9.07 7.36,-12.25 16.42,-7.1 9.07,5.16 16.43,16.72 16.43,25.78 0,7.56 -5.12,10.95 -12.06,8.92l0 133.25 -104.52 45.16 0 301.54 83.08 47.24 0 -222.51c-6.93,-5.64 -12.06,-14.68 -12.06,-22.22 0,-9.08 7.37,-12.51 16.44,-7.67 9.05,4.83 16.42,16.14 16.42,25.22 0,7.55 -5.13,11.12 -12.06,9.34l0 222.81 0.06 0.04 0 685.24c15.24,1.24 30.23,2.17 44.79,2.75l0 -741.04 0 -256.15c-6.94,-5.63 -12.05,-14.66 -12.05,-22.2 0,-9.09 7.35,-12.53 16.4,-7.69 9.07,4.84 16.44,16.14 16.44,25.22 0,7.55 -5.13,11.1 -12.05,9.32l0 259.78 0 733.07c13.07,0.39 25.76,0.46 37.89,0.17l0 -645.2c-1.32,-2.52 -1.76,-5.48 -0.99,-8.46 0.23,-0.91 0.58,-1.77 0.99,-2.57l0 -608.99 -69.57 -39.49 0 -178.66 -177.92 -94.03 0 68.79 0 4.24 0 8.73 -48.93 -27.04 -0.11 0.07 0 -0.13 -0.03 -0.02 0 -10.54 0.03 0.01 0 -48.73 -23.6 -13.12 0 819.82 52.74 29.65 0 -261.67z"/>
    <polygon class="fil1" points="1433.67,461.7 1297.66,385.61 1297.66,441.86 1227.87,403.24 1227.87,411.8 1306.52,456 1306.52,452.21 1306.52,447.27 1306.52,399.76 1433.67,470.71 "/>
    <polygon class="fil1" points="1433.67,557.81 1410.5,544.66 1410.5,455.87 1401.2,451.29 1401.2,548.69 1433.67,567.13 "/>
    <polygon class="fil1" points="1128.08,621.55 1128.08,514.18 1103.44,527.99 1103.44,634.67 "/>
    <path class="fil1" d="M1058.24 955.02l0 -86.63c-0.21,-0.93 -0.36,-1.92 -0.36,-3.04 0,-1.16 0.13,-2.35 0.36,-3.57l0 -96.56 -58.15 90.57 0 86.9 5.8 3.3 0 202.43 52.83 -29.42 0 -164.24 -0.48 0.26z"/>
    <polygon class="fil1" points="1058.24,711.2 960.78,863.27 960.78,920.35 991.45,937.78 991.45,857.02 1058.24,752.99 "/>
    <path class="fil4" d="M1247.44 2171.93c7.7,1.43 15.74,2.9 24.01,4.38l39.59 -18.64 0 -90.66 -48.81 -26.73 0 -48.91 -14.79 7 0 173.56z"/>
    <path class="fil4" d="M1300.89 1504.8l-53.45 -30.05 0 511.09 14.52 -6.87 0 -163.58 0.18 0.09 0 -293.72 100.61 57.22 0 257.89 -52.14 -29.65 0 -147.02c-6.93,-5.84 -12.05,-15.06 -12.05,-22.62 0,-9.07 7.35,-12.25 16.41,-7.1 9.06,5.16 16.44,16.71 16.44,25.79 0,7.54 -5.13,10.93 -12.07,8.9l0 138.28 34.69 19.73 0 -240.42 -83.15 -47.28 0 308.13 91.87 52.24 0 295.41c9.69,1.42 19.46,2.79 29.3,4.09l0 -638.7 -91.16 -51.85z"/>
    <path class="fil4" d="M1270.8 1866.66l0.26 -0.14 0 169.99 39.99 21.52 0 -86.39c-7.01,-5.68 -12.19,-14.78 -12.19,-22.4 0,-9.19 7.45,-12.66 16.61,-7.81 9.17,4.86 16.6,16.23 16.6,25.41 0,7.63 -5.17,11.26 -12.19,9.48l0 189.7 -29.08 13.68c1.97,0.36 4.01,0.72 6.36,1.12 18.19,3.11 37.29,6.2 56.86,9.14l0 -290.31 -83.22 -47.33 0 14.34z"/>
    <polygon class="fil1" points="793.92,518.11 775.74,528.23 775.74,804.38 793.92,776.18 "/>
    <path class="fil1" d="M1084 363.1l0 -4.21 0 -4.52 0 -119.79 -308.25 160.39 0 124.6 26.8 -14.94 0 270.32 -26.8 41.62 0 41.65 57.46 -89.52 0 -323.93c-6.86,1.9 -11.92,-1.51 -11.92,-8.97 0,-8.97 7.29,-20.3 16.25,-25.28 8.98,-5.01 16.22,-1.78 16.22,7.2 0,7.45 -5.05,16.5 -11.9,22.23l0 327.52 -63.82 99.41 0 17.44 57.49 -31.51 26.52 14.7 0 -35.94c-6.86,1.91 -11.92,-1.49 -11.92,-8.97 0,-8.96 7.27,-20.31 16.23,-25.29 8.97,-4.99 16.24,-1.77 16.24,7.22 0,7.47 -5.06,16.49 -11.92,22.22l0 45.55 46.26 25.13 0 -31.04 0 -229.09c-6.84,1.91 -11.92,-1.49 -11.92,-8.97 0,-8.95 7.28,-20.29 16.23,-25.28 8.96,-4.99 16.25,-1.76 16.25,7.2 0,7.47 -5.06,16.51 -11.93,22.24l0 220.46 26.58 -41.41 0 -330.02c-6.87,1.93 -11.91,-1.48 -11.91,-8.95 0,-8.98 7.26,-20.29 16.22,-25.28 8.99,-5.01 16.25,-1.77 16.25,7.2 0,7.45 -5.08,16.51 -11.92,22.22l0 321.39 59.51 -92.71 0 -335.56c-6.86,1.94 -11.93,-1.47 -11.93,-8.93 0,-8.99 7.26,-20.31 16.24,-25.31 8.98,-4.99 16.23,-1.77 16.23,7.22 0,7.45 -5.04,16.48 -11.9,22.21l0 339.12 -103.37 161 0 37.02 26.57 14.57 0 -52.24 106.1 -165.53 0 -40.22 3.87 -2.06 0 -250.74c-6.85,1.9 -11.93,-1.49 -11.93,-8.95 0,-8.99 7.29,-20.3 16.23,-25.29 8.98,-4.98 16.26,-1.78 16.26,7.2 0,7.46 -5.08,16.51 -11.92,22.22l0 250.96 24.06 -12.81 0 -198.78 0.01 0 0 -5.25 33.26 -18.18 0 -78.46 -44.08 24.5z"/>
   </g>
  </g>
  <rect class="fil5" x="-0.01" y="-0.01" width="4233.33" height="2540"/>
 </g>
</svg>
